{"glyphs":{"0":{"ha":686,"x_min":32,"x_max":654,"o":"m 654 526 q 608 149 654 279 q 371 -44 542 -44 q 32 500 32 -44 q 97 890 32 744 q 365 1078 182 1078 q 572 916 489 1078 q 654 526 654 754 m 510 453 q 494 658 510 596 q 361 788 463 788 q 206 669 253 788 q 172 465 172 588 q 353 115 172 115 q 493 243 460 115 q 510 453 510 307 z "},"1":{"ha":686,"x_min":144,"x_max":542,"o":"m 542 1004 q 507 878 542 975 q 406 604 457 740 q 336 333 336 408 q 349 288 336 303 q 456 49 456 158 q 369 -40 456 -40 q 299 -10 329 -40 q 231 86 249 40 q 213 204 213 132 l 213 249 q 324 686 213 388 q 379 879 379 836 q 349 931 379 911 q 292 946 324 946 q 240 943 274 946 q 188 940 206 940 q 144 1000 144 940 q 160 1052 144 1029 q 204 1075 176 1075 q 347 1069 251 1075 q 489 1063 442 1063 q 522 1041 503 1063 q 542 1004 542 1019 z "},"2":{"ha":686,"x_min":57,"x_max":629,"o":"m 629 911 q 549 632 629 797 q 401 368 514 557 q 321 196 321 233 q 360 122 321 149 q 444 97 394 97 q 542 126 496 97 q 586 156 589 156 q 618 115 607 156 q 628 60 628 85 q 586 -7 628 -7 q 372 -24 514 -7 q 157 -42 229 -42 q 114 7 132 -42 q 99 78 99 47 q 110 114 99 101 q 194 215 139 147 q 383 518 293 350 q 500 843 500 736 q 435 919 500 919 q 281 862 344 919 q 218 715 218 804 q 236 669 218 669 q 274 699 249 669 q 308 751 292 725 q 369 768 322 768 q 411 732 411 768 q 325 590 411 664 q 169 517 239 517 q 83 569 115 517 q 57 672 57 614 q 196 937 57 799 q 460 1075 335 1075 q 629 911 629 1075 z "},"3":{"ha":686,"x_min":57,"x_max":629,"o":"m 629 910 q 563 810 629 864 q 497 714 497 757 q 527 565 497 636 q 588 422 557 493 q 625 208 625 326 q 531 11 625 85 q 318 -56 446 -56 q 286 -56 307 -56 q 253 -57 264 -57 q 101 -9 146 -57 q 57 146 57 39 q 144 301 57 301 q 240 233 189 301 q 336 165 290 165 q 451 235 408 165 q 489 369 489 293 q 474 501 489 454 q 400 613 454 563 q 368 624 386 624 q 272 594 342 624 q 165 565 203 565 q 133 604 133 565 q 178 706 133 663 q 326 740 213 740 q 415 800 360 740 q 469 894 469 860 q 353 940 469 940 q 262 897 299 940 q 225 800 225 854 q 167 782 225 782 q 89 813 89 782 q 104 965 89 892 q 174 1072 128 1072 l 353 1072 q 529 1042 456 1072 q 629 910 629 999 z "},"4":{"ha":686,"x_min":50,"x_max":636,"o":"m 636 994 q 617 950 636 969 q 578 913 597 931 q 560 724 560 896 q 562 537 560 667 q 564 347 564 407 q 599 167 564 257 q 635 58 635 76 q 591 -12 635 21 q 510 -44 547 -44 q 436 -11 471 -44 q 414 43 414 11 q 430 116 414 67 q 446 190 446 165 q 421 253 446 228 q 360 278 396 278 q 276 259 333 278 q 192 240 218 240 q 126 267 153 240 q 50 436 50 343 q 146 775 50 604 q 349 1025 226 921 q 533 1121 463 1121 q 568 1108 556 1121 q 618 1056 608 1068 q 636 994 636 1029 m 483 633 q 472 756 483 694 q 426 844 457 844 q 276 743 347 844 q 210 565 210 650 q 293 418 210 489 q 349 401 314 401 q 464 482 433 401 q 483 633 483 532 z "},"5":{"ha":686,"x_min":64,"x_max":622,"o":"m 622 460 q 528 117 622 253 q 221 -40 419 -40 q 99 68 143 -40 q 64 242 64 153 q 124 436 64 365 q 271 564 206 533 q 464 594 336 594 q 488 554 488 594 q 479 515 488 535 q 451 492 469 492 q 290 447 367 492 q 203 317 203 394 q 232 229 203 271 q 308 182 264 182 q 479 311 397 182 q 553 525 553 429 q 511 643 553 592 q 404 700 468 700 q 285 643 353 700 q 196 585 217 586 q 93 938 93 797 q 110 997 93 972 q 161 1028 129 1028 q 361 1026 228 1028 q 561 1024 494 1024 q 603 968 603 1024 q 588 903 603 940 q 547 857 569 857 q 469 887 532 857 q 369 917 407 917 l 333 918 q 249 885 283 918 q 214 832 214 853 q 276 744 214 794 q 286 772 276 751 q 456 811 319 811 q 589 671 543 811 q 622 460 622 569 z "},"6":{"ha":686,"x_min":69,"x_max":617,"o":"m 617 343 q 569 96 617 200 q 382 -42 507 -42 q 139 117 225 -42 q 69 417 69 246 q 165 843 69 674 q 521 1051 285 1051 q 603 989 603 1051 q 567 899 603 950 q 496 847 532 847 q 242 726 329 847 q 165 447 165 621 q 207 265 165 338 q 361 178 258 178 q 467 244 428 178 q 500 374 500 301 q 478 519 500 454 q 381 611 446 611 q 303 558 332 611 q 247 465 254 472 q 226 454 236 454 q 196 518 196 454 q 246 648 196 596 q 374 700 296 700 q 563 576 494 700 q 617 343 617 475 z "},"7":{"ha":686,"x_min":76,"x_max":610,"o":"m 610 613 q 597 568 610 592 q 565 544 585 544 q 510 575 547 544 q 457 606 474 606 q 438 597 447 606 q 354 338 354 519 q 368 182 354 285 q 382 32 382 79 q 338 -24 382 -3 q 261 -42 300 -42 q 199 -2 199 -42 q 192 115 199 38 q 185 232 185 193 q 236 475 185 365 q 382 678 282 575 q 389 688 389 685 q 388 688 389 688 q 340 671 383 688 q 274 654 296 654 q 219 717 219 654 q 251 804 219 760 q 325 849 283 849 q 379 801 356 849 q 429 754 403 754 q 490 849 490 754 q 429 983 490 983 q 267 892 383 983 q 126 801 151 801 q 86 857 100 801 q 76 935 76 896 q 139 1057 76 1057 q 350 1061 210 1057 q 561 1065 490 1065 q 604 969 604 1065 q 565 769 604 818 q 525 740 557 758 q 493 718 493 721 q 508 696 493 710 q 549 681 524 682 q 586 669 575 681 q 610 613 610 647 z "},"8":{"ha":686,"x_min":44,"x_max":642,"o":"m 610 910 q 586 796 610 833 q 543 763 569 771 q 517 751 517 754 q 529 735 517 747 q 642 381 642 622 q 615 150 642 263 q 564 19 590 47 q 457 -36 518 -25 q 333 -39 435 -39 q 129 0 168 -39 q 44 258 44 85 q 76 578 44 461 q 138 694 100 660 q 169 721 169 726 q 164 731 169 725 q 100 854 100 794 q 185 1003 100 946 q 368 1054 261 1054 q 531 1022 465 1054 q 610 910 610 985 m 500 850 q 368 922 500 922 q 206 842 206 922 q 256 803 206 803 q 306 807 271 803 q 356 811 340 811 q 393 810 367 811 q 432 808 419 808 q 500 850 500 808 m 525 492 q 483 650 525 582 q 350 731 435 731 q 204 626 253 731 q 168 438 168 547 q 208 265 168 342 q 346 174 258 174 q 490 292 442 174 q 525 492 525 379 z "},"9":{"ha":686,"x_min":60,"x_max":626,"o":"m 626 594 q 492 163 626 347 q 104 -44 342 -44 q 68 29 82 -44 q 60 121 60 82 q 90 215 60 215 q 293 236 226 215 q 457 354 382 265 q 499 479 499 403 q 494 551 499 503 q 490 624 490 600 q 451 790 490 715 q 321 883 404 883 q 206 654 206 883 q 308 471 206 471 q 389 582 360 471 q 506 500 506 582 q 442 383 506 442 q 317 310 379 324 q 281 306 299 306 q 115 446 174 306 q 69 679 69 554 q 290 1114 69 1114 q 556 931 465 1114 q 626 594 626 789 z "}," ":{"ha":694,"x_min":0,"x_max":0,"o":""},"$":{"ha":243,"x_min":0,"x_max":0,"o":""},"'":{"ha":243,"x_min":0,"x_max":0,"o":""},"(":{"ha":243,"x_min":0,"x_max":0,"o":""},")":{"ha":243,"x_min":0,"x_max":0,"o":""},",":{"ha":243,"x_min":0,"x_max":0,"o":""},"-":{"ha":243,"x_min":0,"x_max":0,"o":""},".":{"ha":243,"x_min":0,"x_max":0,"o":""},":":{"ha":243,"x_min":0,"x_max":0,"o":""},";":{"ha":243,"x_min":0,"x_max":0,"o":""},"?":{"ha":243,"x_min":0,"x_max":0,"o":""},"A":{"ha":1031,"x_min":22,"x_max":1004,"o":"m 997 457 q 856 -21 1004 101 q 786 -51 818 -51 l 782 -46 q 829 68 782 -43 q 889 311 890 208 q 744 554 886 469 q 456 622 626 625 q 218 547 314 619 q 111 329 108 465 q 150 169 113 260 q 218 33 172 114 q 256 -40 256 -32 q 250 -46 256 -46 q 113 76 175 -47 q 47 264 68 163 q 26 461 28 357 q 163 879 22 689 q 536 1090 314 1086 q 875 868 736 1093 q 997 457 994 672 m 881 629 q 844 703 879 654 q 706 829 789 782 q 525 879 615 881 q 356 829 442 878 q 221 713 276 783 q 188 654 188 672 q 193 649 188 649 q 356 662 247 650 q 518 674 464 674 q 690 644 568 675 q 869 615 811 614 q 881 629 881 615 z "},"B":{"ha":1060,"x_min":38,"x_max":1047,"o":"m 1047 226 q 1021 94 1047 142 q 563 -39 944 -39 q 317 -26 478 -39 q 97 11 118 -10 q 38 446 38 64 q 44 732 38 542 q 51 1016 51 922 q 201 1110 51 1110 q 357 1099 254 1110 q 513 1088 460 1088 q 836 1046 725 1088 q 1013 807 1013 982 q 992 672 1013 711 q 933 624 978 646 q 847 567 879 597 q 991 419 935 514 q 1047 226 1047 325 m 857 822 q 744 997 857 938 q 526 1047 653 1047 q 308 1017 376 1047 q 201 842 201 971 q 304 644 201 719 q 522 576 396 576 q 750 628 661 576 q 857 822 857 692 m 953 292 q 828 493 953 422 q 582 551 725 551 q 385 582 488 551 q 207 671 272 615 q 189 679 197 679 q 107 296 107 679 q 253 88 107 156 q 522 36 364 36 q 794 90 674 36 q 953 292 953 160 z "},"C":{"ha":956,"x_min":68,"x_max":999,"o":"m 549 1044 q 254 940 388 1044 q 68 500 68 794 q 199 85 68 219 q 611 -49 329 -49 q 854 38 735 -49 q 992 163 897 68 q 999 181 999 169 q 968 235 999 203 q 607 24 792 24 q 315 110 417 24 q 178 510 178 226 q 299 754 178 643 q 539 861 415 861 q 682 844 633 861 q 753 795 721 831 q 819 722 786 760 q 861 704 838 704 q 949 758 904 704 q 992 851 992 808 q 983 876 992 868 q 811 983 926 932 q 549 1044 672 1044 z "},"D":{"ha":1047,"x_min":60,"x_max":1018,"o":"m 358 1031 q 817 867 624 1031 q 1018 438 1018 693 q 924 43 1018 138 q 525 -51 829 -51 q 221 -47 279 -51 q 79 0 117 -37 q 60 194 60 19 q 63 385 60 265 q 67 522 67 504 q 65 642 67 561 q 64 760 64 722 q 111 1028 64 981 q 172 1046 129 1046 q 254 1038 192 1046 q 358 1031 317 1031 m 410 992 q 151 808 217 992 q 115 469 115 704 q 113 394 115 444 q 111 318 111 343 q 168 106 111 171 q 453 17 244 17 q 838 176 729 17 q 911 490 911 286 q 751 828 911 665 q 410 992 590 992 z "},"E":{"ha":901,"x_min":32,"x_max":949,"o":"m 949 182 q 942 167 949 175 q 772 21 856 65 q 551 -31 676 -31 q 167 149 311 -31 q 32 560 32 315 q 191 919 32 763 q 553 1075 350 1075 q 801 974 728 1075 q 840 903 814 949 q 849 881 849 892 q 817 820 849 853 q 758 788 786 788 q 714 815 750 788 q 626 869 668 851 q 481 897 560 897 q 315 853 376 897 q 200 731 299 839 q 172 671 172 699 q 394 579 172 579 q 513 592 443 579 q 624 628 596 607 q 635 632 629 632 q 668 603 668 632 q 660 585 668 593 q 539 508 604 528 q 396 496 490 496 q 236 515 310 496 q 194 531 235 517 q 154 540 164 540 q 136 460 136 540 q 264 143 136 258 q 590 32 388 32 q 763 78 688 32 q 861 163 808 104 q 918 208 903 208 q 949 182 949 208 z "},"F":{"ha":935,"x_min":76,"x_max":1001,"o":"m 1001 913 q 979 860 1001 882 q 926 839 957 839 q 879 875 879 839 q 889 893 879 883 q 899 910 899 903 q 875 946 899 921 q 715 1006 818 1006 q 592 994 674 1006 q 468 983 510 983 q 290 914 381 983 q 196 754 196 840 q 236 649 196 681 q 350 621 272 621 q 540 640 424 621 q 718 696 681 664 q 738 704 729 704 q 751 690 751 704 q 736 664 751 679 q 557 582 700 624 q 357 546 426 546 q 210 528 260 546 q 131 421 131 499 q 185 101 131 225 q 199 74 196 76 q 240 15 240 29 q 185 0 240 0 q 111 21 142 0 q 76 86 76 46 l 76 1026 q 206 1072 76 1072 q 497 1069 303 1072 q 786 1065 690 1065 q 924 1025 857 1065 q 1001 913 1001 979 z "},"G":{"ha":1026,"x_min":64,"x_max":996,"o":"m 994 400 l 994 314 q 892 42 993 133 q 604 -50 790 -50 q 215 110 367 -50 q 64 510 64 269 q 223 883 64 729 q 603 1038 382 1038 q 793 1001 682 1038 q 961 908 917 960 q 982 860 982 885 q 951 787 982 824 q 885 750 919 750 q 857 761 871 750 q 603 878 725 878 q 278 772 410 878 q 135 471 135 658 q 253 162 135 286 q 558 38 372 38 q 743 81 674 38 q 826 243 826 133 q 828 302 826 263 q 831 361 831 342 q 792 456 831 456 q 593 465 725 456 q 394 474 461 474 q 339 375 339 474 q 346 342 339 358 q 353 321 353 325 q 315 292 353 292 q 240 439 240 292 q 288 608 240 554 q 449 663 335 663 q 592 653 497 663 q 735 644 686 644 q 941 594 886 644 q 994 400 996 544 z "},"H":{"ha":1018,"x_min":54,"x_max":986,"o":"m 986 581 q 967 279 986 465 q 906 1 942 35 q 847 -32 871 -32 q 833 -19 833 -32 q 844 0 833 -14 q 883 203 867 28 q 897 422 897 342 q 849 614 897 614 q 715 565 842 614 q 518 517 589 517 q 356 556 458 517 q 211 594 254 594 q 104 426 104 594 q 142 154 104 333 q 165 24 165 42 q 142 -4 165 -4 q 126 -2 136 -4 q 112 0 115 0 q 106 8 108 0 q 82 128 94 35 q 54 560 54 338 q 214 1072 54 1072 q 249 1065 229 1072 q 269 1043 269 1057 q 237 993 269 1049 q 204 876 204 938 q 301 682 204 751 q 518 619 389 619 q 738 672 654 619 q 838 861 838 735 q 811 974 838 917 q 785 1025 785 1031 q 800 1056 785 1042 q 832 1069 815 1069 q 882 1044 854 1069 q 986 581 986 951 z "},"I":{"ha":222,"x_min":56,"x_max":193,"o":"m 193 997 q 185 765 193 919 q 178 532 178 610 q 173 299 178 454 q 168 67 168 144 q 160 7 168 40 q 132 -39 150 -39 q 107 61 107 -39 q 94 297 107 140 q 82 532 82 453 q 69 728 82 597 q 56 924 56 858 q 67 993 56 979 q 149 1038 107 1038 q 193 997 193 1038 z "},"J":{"ha":871,"x_min":81,"x_max":865,"o":"m 865 1010 q 857 993 865 1003 q 824 842 824 953 q 830 684 824 789 q 836 526 836 579 q 743 146 836 313 q 431 -54 629 -54 q 197 11 299 -54 q 81 211 81 86 q 94 346 81 303 q 171 457 111 399 q 186 463 176 463 q 272 413 222 463 q 321 326 321 363 q 311 301 321 311 q 273 281 297 288 q 242 256 249 274 q 231 157 231 231 q 304 56 231 89 q 436 32 360 32 q 669 210 592 32 q 726 522 726 342 q 694 754 726 600 q 661 988 661 908 q 711 1028 661 1014 q 785 1038 746 1038 q 865 1010 865 1038 z "},"K":{"ha":1064,"x_min":65,"x_max":1051,"o":"m 1051 972 q 971 790 1051 874 q 819 678 922 740 q 739 613 739 629 q 770 601 739 601 q 875 503 801 601 q 960 372 936 421 q 1015 203 1003 288 q 1025 26 1025 142 q 988 -35 1025 -12 q 911 -58 951 -58 q 821 26 821 -58 q 835 147 821 60 q 850 279 850 233 q 825 376 850 351 q 443 606 690 515 q 296 656 369 631 q 190 747 190 700 q 189 750 190 750 q 183 733 188 746 q 144 422 144 564 q 141 323 144 389 q 138 224 138 257 q 194 36 138 101 q 204 18 204 25 q 163 -7 204 -7 q 139 0 147 -7 q 65 332 65 65 q 67 465 65 376 q 69 597 69 553 q 79 815 69 669 q 89 1032 89 960 q 167 1051 89 1051 q 254 1022 254 1051 q 247 951 254 999 q 239 881 239 904 q 340 728 239 826 q 490 669 399 669 q 641 702 560 669 q 771 782 722 735 q 846 893 828 840 q 860 1028 860 938 q 939 1058 860 1058 q 1051 972 1051 1058 z "},"L":{"ha":931,"x_min":35,"x_max":997,"o":"m 997 140 q 985 104 997 117 q 775 -21 900 10 q 529 -42 693 -42 q 239 -25 317 -42 q 53 149 53 14 q 44 444 53 247 q 35 738 35 640 q 99 1060 35 994 q 188 1076 146 1076 q 243 1035 243 1076 q 199 881 243 1013 q 128 549 128 669 q 219 200 128 333 q 529 43 324 43 q 738 57 678 43 q 919 158 832 79 q 967 186 949 186 q 997 140 997 186 z "},"M":{"ha":1040,"x_min":33,"x_max":1014,"o":"m 1014 518 q 975 257 1014 421 q 869 0 929 60 q 789 -36 832 -36 q 775 -28 775 -36 q 794 0 775 -18 q 824 105 810 15 q 839 288 839 194 q 794 493 839 447 q 700 701 747 597 q 449 888 597 888 q 224 746 324 888 q 133 503 133 618 q 131 383 133 453 q 128 290 128 313 q 149 161 128 211 q 239 38 172 104 q 261 -11 261 14 q 242 -35 261 -35 q 183 0 218 -35 q 54 231 85 99 q 33 507 33 318 q 67 690 33 564 q 165 947 107 847 q 329 1078 240 1078 q 444 1028 374 1078 q 533 978 515 978 q 621 1023 594 978 q 719 1068 647 1068 q 924 883 828 1068 q 1014 518 1014 706 m 942 428 q 919 593 942 490 q 904 678 904 665 q 848 785 904 722 q 744 847 792 847 q 708 828 708 847 q 769 731 708 810 q 829 615 829 651 q 894 282 829 578 q 942 428 942 329 z "},"N":{"ha":1088,"x_min":71,"x_max":1061,"o":"m 1061 589 q 967 0 1061 224 q 911 -64 939 -64 q 896 -26 896 -64 q 904 91 896 13 q 913 210 913 169 q 782 599 913 461 q 631 776 706 688 q 426 869 539 869 q 224 761 299 869 q 156 533 156 667 q 193 160 156 354 q 217 57 206 108 q 233 -43 233 -12 q 228 -56 233 -56 q 176 0 207 -56 q 85 251 104 128 q 71 517 71 332 q 104 844 71 686 q 260 1088 154 1088 q 493 1017 350 1088 q 696 879 625 950 q 907 583 794 781 q 965 482 925 549 q 969 476 969 476 q 972 478 972 476 q 957 738 972 644 q 861 974 932 888 q 850 1003 850 988 q 869 1078 850 1078 q 950 989 900 1078 q 1007 872 986 925 q 1061 589 1061 729 z "},"O":{"ha":1028,"x_min":32,"x_max":1013,"o":"m 1013 528 q 871 124 1013 294 q 503 -53 722 -53 q 165 104 301 -53 q 32 468 32 257 q 149 892 32 718 q 497 1083 278 1083 q 881 918 740 1083 q 1013 528 1013 765 m 874 513 q 759 782 874 656 q 503 908 644 908 q 222 761 340 908 q 113 457 113 624 q 215 163 113 282 q 497 38 324 38 q 776 194 668 38 q 874 513 874 335 z "},"P":{"ha":979,"x_min":53,"x_max":1046,"o":"m 1046 767 q 919 521 1046 631 q 686 421 803 421 q 492 456 588 421 q 354 519 446 472 q 257 554 288 554 q 210 533 231 554 q 160 369 160 482 q 183 183 160 297 q 206 57 206 69 q 209 33 206 54 q 213 -1 213 11 q 196 -31 213 -31 q 113 28 172 -31 q 53 408 53 88 q 56 604 53 479 q 60 771 60 729 q 60 789 60 772 q 58 817 58 804 q 322 1067 58 1067 q 574 1057 419 1067 q 799 1047 729 1047 q 957 963 874 1047 q 1046 767 1046 869 m 861 800 q 511 990 861 990 q 311 960 392 990 q 196 815 196 915 q 294 626 196 700 q 501 557 383 557 q 736 611 636 557 q 861 800 861 678 z "},"Q":{"ha":1089,"x_min":49,"x_max":1065,"o":"m 883 358 q 665 225 849 358 q 699 178 665 200 q 768 157 732 157 q 892 349 892 310 q 883 358 892 358 m 865 649 q 776 814 865 733 q 529 906 674 906 q 297 775 410 906 q 185 493 185 644 q 265 182 185 308 q 438 65 342 65 q 517 60 461 65 q 592 56 574 56 q 615 61 615 56 q 573 116 615 53 q 531 232 531 179 q 564 313 531 279 q 626 338 586 336 q 703 344 692 342 q 801 406 754 357 q 868 571 868 471 q 867 610 868 583 q 865 649 865 636 m 888 -31 q 783 -15 851 -31 q 685 0 714 0 q 600 -19 656 0 q 515 -37 544 -37 q 185 122 325 -37 q 49 468 49 276 q 169 874 49 699 q 525 1071 304 1071 q 876 938 738 1071 q 1015 594 1015 806 q 986 358 1015 476 q 883 146 949 217 q 961 189 915 189 q 1034 152 1003 189 q 1065 74 1065 115 q 999 -6 1065 24 q 888 -31 946 -31 z "},"R":{"ha":1056,"x_min":47,"x_max":1026,"o":"m 1026 99 q 989 26 1026 65 q 900 -17 949 -17 q 822 21 858 -17 q 790 111 790 51 q 797 179 790 135 q 803 240 803 224 q 539 460 803 318 q 196 596 289 596 q 178 590 183 596 q 133 440 133 546 q 156 229 133 381 q 174 25 176 88 q 143 -28 171 -28 q 90 0 124 -28 q 60 116 72 15 q 47 332 47 217 q 54 572 47 474 q 61 786 61 671 q 106 976 61 901 q 275 1068 163 1068 l 753 1068 q 928 1015 850 1068 q 1026 829 1026 949 q 936 575 1026 667 q 724 493 853 493 q 721 492 721 493 q 800 438 721 492 q 947 306 893 372 q 1026 99 1026 206 m 807 815 q 697 975 807 919 q 494 1019 610 1019 q 304 978 388 1019 q 197 829 197 925 q 301 663 197 729 q 500 606 393 606 q 700 653 613 606 q 807 815 807 713 z "},"S":{"ha":1042,"x_min":58,"x_max":1025,"o":"m 514 1085 q 224 1003 346 1085 q 88 765 88 913 q 175 601 88 656 q 372 554 249 554 q 661 589 458 554 q 797 542 757 589 q 833 407 833 500 q 704 186 833 281 q 431 99 582 99 q 236 171 285 99 q 206 324 206 215 q 183 360 206 346 q 132 375 161 375 q 58 294 58 375 q 172 57 58 149 q 456 -35 285 -35 q 846 119 661 -35 q 1025 417 1025 268 q 974 665 1025 593 q 785 736 922 736 q 627 706 758 736 q 429 675 496 675 q 299 775 299 675 q 369 928 299 872 q 529 976 432 976 q 808 874 706 976 q 857 851 832 851 q 906 874 885 851 q 926 922 926 897 q 917 947 926 938 q 754 1040 865 999 q 514 1085 632 1085 z "},"T":{"ha":958,"x_min":39,"x_max":1000,"o":"m 1000 819 q 994 754 1000 771 q 944 721 983 721 q 881 742 917 721 q 840 792 840 765 q 779 874 840 838 q 678 906 726 906 q 611 846 611 906 q 621 438 611 710 q 631 31 631 167 q 576 -22 631 3 q 497 -43 529 -43 q 422 36 422 -43 q 444 444 422 172 q 467 851 467 715 q 385 924 467 924 q 299 903 346 924 q 243 842 243 876 q 217 772 243 797 q 146 746 190 746 q 75 767 107 746 q 39 826 39 789 q 228 1036 39 969 q 536 1085 361 1085 q 839 1044 735 1085 q 1000 819 1000 982 z "},"U":{"ha":1054,"x_min":75,"x_max":1032,"o":"m 1032 565 q 914 133 1032 297 q 522 -53 781 -53 q 182 192 311 -53 q 75 625 75 393 q 201 1008 75 889 q 243 1029 224 1029 q 278 997 278 1029 q 272 983 278 989 q 174 679 174 871 q 261 353 174 492 q 542 192 364 192 q 851 315 740 192 q 958 632 958 432 q 843 983 958 857 q 815 1021 815 1013 q 826 1028 815 1028 q 918 999 854 1028 q 1007 793 975 940 q 1032 565 1032 678 z "},"V":{"ha":1004,"x_min":42,"x_max":988,"o":"m 988 647 q 899 305 988 471 q 664 35 810 139 q 507 -33 569 -33 q 260 126 396 -33 q 95 386 149 257 q 42 632 42 515 q 97 906 42 765 q 282 1082 169 1082 q 324 1071 324 1082 q 297 1043 324 1068 q 174 860 208 956 q 142 642 142 774 q 224 431 142 536 q 400 282 297 338 q 513 247 467 247 q 781 376 674 247 q 882 663 882 497 q 839 850 882 781 q 707 997 821 878 q 678 1044 678 1029 q 738 1068 678 1068 l 753 1068 q 883 958 811 1067 q 964 796 940 872 q 988 647 988 719 z "},"W":{"ha":1051,"x_min":56,"x_max":1032,"o":"m 1032 569 q 946 161 1032 350 q 721 -46 853 -46 q 621 -21 656 -46 q 582 25 606 -10 q 546 49 567 49 q 470 6 540 49 q 351 -36 400 -36 q 143 175 240 -36 q 56 519 56 364 q 200 943 56 792 q 424 1057 308 1057 q 469 1035 469 1057 q 456 1010 469 1024 q 363 728 363 918 q 419 434 363 574 q 536 294 476 294 q 679 440 600 294 q 764 757 764 596 q 656 1035 764 928 q 642 1061 642 1050 q 676 1081 642 1081 q 811 1033 736 1081 q 961 872 904 974 q 1032 569 1032 744 m 836 594 q 775 361 836 482 q 671 214 729 272 q 736 167 696 167 q 807 204 768 167 q 915 378 875 274 q 954 596 954 483 q 811 965 954 822 q 782 985 792 985 q 794 842 761 985 q 836 594 836 661 m 436 204 q 318 382 365 275 q 271 585 271 489 q 315 846 271 649 q 335 954 335 928 q 325 975 335 975 q 296 956 315 975 q 153 586 153 817 q 190 375 153 479 q 301 194 231 261 q 372 157 340 157 q 436 204 415 157 z "},"X":{"ha":1032,"x_min":42,"x_max":1025,"o":"m 1025 142 q 993 19 1025 67 q 883 -36 956 -36 q 781 -7 833 -36 q 719 72 719 26 q 757 135 719 85 q 794 246 794 186 q 706 444 794 351 q 513 536 617 536 q 333 449 403 536 q 269 256 269 368 q 290 182 269 210 q 310 135 310 154 q 249 44 310 83 q 135 4 189 4 q 42 110 42 4 q 231 485 42 329 q 365 574 289 533 q 414 600 414 600 q 413 601 414 601 q 247 728 339 601 q 160 926 160 849 q 194 1004 160 972 q 276 1036 229 1036 q 332 992 332 1036 q 378 790 332 899 q 513 656 433 656 q 694 731 601 656 q 794 896 794 810 q 774 958 794 931 q 753 996 753 985 q 773 1033 753 1018 q 817 1049 793 1049 q 908 1001 864 1049 q 953 907 953 953 q 846 733 953 819 q 661 615 806 700 q 644 601 644 606 q 647 601 644 601 q 917 444 800 601 q 1025 142 1025 299 z "},"Y":{"ha":957,"x_min":67,"x_max":1025,"o":"m 1025 928 q 943 785 1025 853 q 769 674 897 746 q 618 571 654 610 q 601 483 601 553 q 622 242 601 403 q 643 0 643 81 q 608 -44 643 -29 q 549 -56 582 -56 q 488 -44 514 -56 q 453 0 453 -29 q 465 250 453 83 q 478 501 478 417 q 406 613 478 569 q 254 675 369 635 q 122 742 156 710 q 82 825 99 765 q 67 918 67 876 q 106 1013 67 978 q 207 1049 146 1049 q 288 986 288 1049 q 259 905 288 953 q 231 833 231 857 q 268 766 231 801 q 339 731 306 731 q 400 753 360 731 q 468 776 440 776 q 528 735 503 776 q 560 694 553 694 q 574 701 565 694 q 692 779 607 732 q 808 861 772 824 q 842 928 842 894 q 838 952 842 936 q 835 976 835 968 q 862 1019 835 999 q 911 1040 889 1040 q 988 1003 950 1040 q 1025 928 1025 965 z "},"Z":{"ha":1069,"x_min":78,"x_max":1094,"o":"m 1094 853 q 994 700 1094 775 q 825 608 924 647 q 753 588 769 588 q 500 468 657 588 q 338 251 338 346 q 476 140 338 175 q 683 117 568 117 q 842 149 781 117 q 924 210 843 150 q 1024 242 968 242 q 1076 176 1057 242 q 1090 85 1090 129 q 1033 -24 1090 -24 q 644 -26 904 -24 q 253 -29 383 -29 q 139 -4 186 -29 q 78 86 78 26 q 333 490 78 318 q 438 551 372 510 q 592 629 472 579 q 771 718 721 685 q 858 842 858 775 q 719 968 858 926 q 514 997 622 997 q 349 967 419 997 q 253 842 253 925 q 226 811 253 824 q 185 803 206 803 q 113 872 113 803 q 574 1072 113 1072 q 671 1070 606 1072 q 768 1068 736 1068 q 967 1001 851 1068 q 1094 853 1094 928 z "},"a":{"ha":479,"x_min":18,"x_max":446,"o":"m 446 33 q 440 31 446 32 q 415 22 435 31 q 381 14 394 14 q 319 43 319 14 q 321 49 319 47 q 314 78 314 78 q 315 138 314 78 l 303 138 q 236 50 268 76 q 135 17 196 17 q 46 67 79 17 q 18 168 18 110 q 96 368 18 261 q 268 483 179 483 q 349 461 314 483 q 363 447 351 458 q 375 435 374 435 q 378 442 378 435 q 438 472 381 468 l 438 449 q 401 372 425 436 q 378 288 378 307 q 396 106 378 172 q 446 33 400 93 m 290 306 q 283 313 290 306 q 257 319 276 319 q 144 250 213 319 q 117 206 132 238 q 99 138 99 167 q 164 74 99 74 q 218 108 176 74 q 261 156 260 142 q 303 263 303 197 q 290 306 303 293 z "},"b":{"ha":496,"x_min":47,"x_max":463,"o":"m 463 333 q 350 104 463 214 q 203 31 275 29 l 189 31 q 126 53 149 32 q 113 72 126 54 q 97 86 101 86 q 94 81 96 85 q 83 35 89 57 q 67 -3 75 -1 q 49 18 58 0 q 88 353 88 244 q 81 490 88 399 q 74 625 74 581 q 58 751 74 664 q 50 783 56 763 q 47 790 47 793 q 53 793 47 793 q 103 794 65 794 q 249 788 211 794 q 343 711 343 771 q 334 678 343 696 q 313 660 325 660 q 310 681 310 660 q 275 711 310 711 q 199 692 231 711 q 160 628 160 669 q 153 585 160 619 q 144 542 146 551 q 138 349 138 465 q 139 338 138 338 q 147 358 139 339 q 181 422 161 394 q 339 497 239 497 q 433 443 399 497 q 463 333 463 397 m 344 256 q 297 324 344 324 q 199 254 246 324 q 156 136 156 192 q 214 68 156 68 q 276 106 238 68 q 315 161 315 143 q 344 256 344 199 z "},"c":{"ha":503,"x_min":28,"x_max":461,"o":"m 461 339 q 407 212 461 265 q 281 158 353 158 q 194 229 194 158 q 254 271 194 271 q 283 265 271 271 q 283 244 285 257 l 342 257 q 343 265 343 260 q 297 308 343 308 q 168 267 207 308 q 100 121 100 197 q 143 65 100 89 q 215 46 179 46 q 351 94 274 46 q 421 143 428 143 q 433 101 433 143 q 415 75 433 90 q 204 11 343 11 q 28 146 28 11 q 51 272 28 201 q 113 385 76 349 q 206 455 165 438 q 324 472 247 472 q 422 435 382 472 q 461 339 461 397 z "},"d":{"ha":494,"x_min":13,"x_max":483,"o":"m 483 747 q 471 723 483 733 q 447 703 458 713 q 406 339 406 660 q 439 140 406 274 q 458 49 458 60 q 456 42 458 42 q 397 71 417 42 q 374 135 388 88 q 363 154 368 154 q 355 150 360 154 q 325 108 350 146 q 178 33 275 33 q 33 81 81 33 q 13 163 13 101 q 36 306 13 231 q 103 431 61 389 q 276 532 201 532 q 319 513 292 532 q 363 482 340 497 q 354 496 361 483 q 347 529 347 508 q 354 601 347 554 q 361 672 361 649 q 328 714 361 714 q 275 700 304 714 l 311 853 q 439 819 406 851 q 483 747 483 778 m 314 275 q 267 343 314 343 q 168 274 215 343 q 125 156 125 211 q 183 88 125 88 q 246 126 207 88 q 285 181 285 164 q 314 275 314 218 z "},"e":{"ha":481,"x_min":29,"x_max":438,"o":"m 438 343 q 356 226 438 251 q 204 211 354 226 q 122 150 122 203 q 175 90 122 90 q 418 161 325 90 q 431 118 431 132 q 338 53 431 94 q 215 14 250 14 q 69 55 110 14 q 29 199 29 96 q 107 400 29 310 q 296 496 186 496 q 406 460 375 496 q 438 343 438 425 m 381 301 q 335 329 381 329 q 286 324 310 329 l 275 322 q 272 321 274 321 q 274 321 272 321 l 275 321 q 225 285 225 324 q 249 272 225 272 q 322 278 281 272 q 381 301 381 288 z "},"f":{"ha":357,"x_min":-33,"x_max":361,"o":"m 361 608 q 322 515 361 515 q 294 519 313 515 q 264 522 275 522 q 218 505 242 522 q 194 465 194 488 q 196 463 194 463 q 208 471 196 463 q 239 479 221 479 q 300 459 269 479 q 331 408 331 439 q 314 353 331 381 q 269 325 297 325 q 236 328 258 325 q 203 332 214 332 q 189 326 189 332 q 200 171 189 249 q 213 78 213 68 q 227 24 213 60 q 242 -19 242 -12 q 257 -157 242 -42 q 206 -169 206 -164 q 186 -282 206 -211 q 143 -383 165 -361 q 11 -447 79 -447 q -33 -408 -33 -447 q -24 -373 -33 -396 q -6 -350 -15 -350 q 1 -369 -1 -350 q 21 -387 3 -387 q 111 -294 81 -387 q 132 -151 132 -229 q 131 90 132 -128 q 71 143 96 90 q 49 225 49 186 q 121 379 49 303 q 151 556 151 413 q 296 663 151 663 q 361 608 361 663 m 131 215 q 128 274 131 250 q 125 290 126 290 q 99 254 110 290 q 90 207 90 226 q 99 173 90 190 q 124 156 108 156 q 131 215 131 156 z "},"g":{"ha":513,"x_min":36,"x_max":490,"o":"m 490 483 q 475 492 490 492 q 424 478 453 492 q 390 440 390 461 q 390 428 390 432 q 356 481 382 460 q 296 501 329 501 q 97 382 214 501 q 53 285 71 354 q 36 178 36 224 q 207 11 36 11 q 315 65 249 11 q 381 158 381 118 q 382 172 381 171 q 385 157 385 168 q 388 99 388 132 q 281 -142 388 -142 q 203 -132 264 -142 q 208 -129 204 -131 l 208 -129 q 195 -181 208 -139 q 182 -246 182 -222 q 221 -317 182 -317 q 293 -297 250 -317 q 406 -206 363 -265 q 449 -74 449 -147 q 443 107 449 -14 q 438 288 438 228 q 479 465 438 419 q 490 483 490 478 m 350 247 q 301 135 350 181 q 260 90 292 108 q 197 72 228 72 q 140 94 163 72 q 117 149 117 115 q 175 259 117 204 q 290 314 233 314 q 350 247 350 314 z "},"h":{"ha":538,"x_min":61,"x_max":497,"o":"m 497 315 q 449 -43 497 107 q 221 -262 378 -262 q 61 -210 61 -262 q 79 -142 61 -168 q 140 -110 101 -110 q 160 -115 160 -110 q 150 -131 160 -121 q 140 -147 140 -140 q 156 -154 140 -154 q 328 -86 260 -154 q 444 136 444 29 q 428 268 444 210 q 351 353 403 353 q 225 276 278 353 q 157 129 192 229 q 114 31 125 40 q 89 21 103 21 q 64 35 64 21 q 71 47 64 40 q 119 326 119 103 q 92 657 119 549 q 67 756 67 756 q 78 819 67 800 q 136 846 93 846 q 249 815 249 846 q 235 808 249 808 q 206 803 211 808 q 201 774 201 797 q 197 378 201 706 q 196 396 196 381 q 257 479 196 439 q 358 515 313 515 q 465 467 418 515 q 497 315 497 435 z "},"i":{"ha":289,"x_min":38,"x_max":269,"o":"m 238 563 q 214 508 238 531 q 158 485 190 485 q 103 508 126 485 q 79 563 79 531 q 103 617 79 594 q 158 639 126 639 q 214 617 190 639 q 238 563 238 594 m 269 450 q 246 392 269 415 q 156 196 156 297 q 163 106 156 164 q 171 19 171 47 q 158 6 171 6 q 86 138 86 6 q 83 347 86 250 l 82 411 q 82 410 82 411 q 72 406 78 406 q 38 428 38 406 q 82 471 38 453 q 149 485 118 485 q 214 474 167 485 q 269 450 269 461 z "},"j":{"ha":374,"x_min":13,"x_max":336,"o":"m 336 540 q 313 486 336 508 q 257 464 289 464 q 201 486 225 464 q 178 540 178 508 q 201 595 178 572 q 257 618 225 618 q 313 595 289 618 q 336 540 336 572 m 311 90 q 267 -196 311 -81 q 58 -361 203 -361 q 18 -356 35 -361 q 13 -262 13 -306 q 28 -203 13 -203 q 61 -204 39 -203 q 94 -206 83 -206 q 235 -62 193 -206 q 263 160 263 29 q 247 289 263 257 q 139 342 222 342 q 28 325 82 342 l 33 439 l 308 444 q 311 90 311 292 z "},"k":{"ha":549,"x_min":36,"x_max":503,"o":"m 503 82 q 410 13 503 13 q 363 18 393 13 q 324 33 325 25 q 354 189 354 88 q 250 386 354 386 q 210 364 210 386 q 168 192 210 322 q 101 38 126 61 q 65 22 83 22 q 36 39 38 22 q 97 242 83 143 q 107 454 107 307 q 80 561 107 492 q 53 668 53 631 q 99 811 53 783 q 256 829 129 829 q 372 735 372 829 q 358 717 372 717 q 319 725 346 717 q 281 733 293 733 q 196 589 196 733 q 208 472 196 522 l 210 482 q 318 517 240 500 q 432 531 388 531 q 483 508 483 531 q 490 440 483 486 q 497 369 497 393 q 485 361 497 361 q 428 386 464 361 q 378 414 393 411 l 376 414 l 383 406 q 503 82 503 261 z "},"l":{"ha":414,"x_min":17,"x_max":444,"o":"m 436 761 q 338 717 379 761 q 300 669 319 692 q 258 549 281 646 q 240 425 240 463 q 242 418 240 418 q 278 434 258 418 q 297 463 297 450 q 294 471 297 467 q 290 479 290 475 q 314 494 290 494 q 344 458 344 494 q 240 368 344 372 q 271 179 240 208 q 306 161 271 178 q 332 135 332 149 q 324 117 332 126 q 297 72 308 103 q 281 31 282 32 q 244 15 272 15 q 238 19 238 15 q 210 55 238 33 q 182 89 182 76 q 174 154 182 93 q 167 233 167 215 q 164 351 167 351 q 17 579 17 351 q 81 767 17 699 q 183 819 131 819 q 251 717 263 819 q 325 780 268 744 q 414 815 382 815 q 435 800 425 815 q 444 772 444 785 q 436 761 444 761 m 181 592 q 163 733 181 733 q 63 560 63 733 q 169 404 63 404 q 172 415 171 407 q 181 592 181 471 z "},"m":{"ha":522,"x_min":35,"x_max":469,"o":"m 193 418 q 161 381 193 381 l 156 382 q 151 393 151 386 q 188 429 151 429 q 193 418 193 429 m 343 424 q 330 405 343 414 q 306 396 317 396 q 293 408 293 396 q 306 428 293 419 q 329 438 318 438 q 343 424 343 438 m 60 104 q 49 31 60 49 q 96 21 50 21 q 176 32 165 21 q 161 50 168 42 q 154 79 154 58 q 153 176 154 111 q 153 272 153 240 q 186 353 153 353 q 201 296 201 353 q 200 255 201 282 q 199 214 199 228 q 200 127 199 185 q 201 40 201 69 q 250 18 201 18 q 296 43 296 18 l 296 254 q 340 350 296 350 q 363 293 360 350 q 363 221 363 304 q 364 176 363 206 q 365 133 365 147 q 307 0 365 58 q 206 -72 276 -31 q 94 -119 125 -119 q 69 -103 86 -119 q 42 -86 53 -86 q 35 -96 35 -86 q 68 -154 35 -132 q 135 -175 97 -175 q 310 -112 197 -175 q 460 0 414 -54 q 469 86 469 11 q 438 447 469 411 q 343 499 392 499 q 299 484 322 499 q 274 469 276 469 q 249 488 275 469 q 201 506 224 506 q 126 464 158 506 l 126 464 q 94 486 126 486 q 36 464 36 486 q 52 432 36 453 q 68 383 68 411 q 63 316 68 361 q 58 249 58 271 q 60 176 58 225 q 60 104 60 128 z "},"n":{"ha":488,"x_min":14,"x_max":444,"o":"m 444 38 q 421 6 444 32 q 304 -101 369 -53 q 165 -164 219 -164 q 67 -158 89 -164 q 15 -92 14 -144 l 15 -62 q 17 -62 15 -62 q 57 -87 15 -62 q 125 -112 99 -112 q 189 -94 151 -112 q 331 115 331 -29 q 331 175 331 135 q 332 233 332 214 q 294 367 332 367 q 235 343 263 367 q 189 294 224 333 q 157 260 176 283 q 154 232 154 257 q 158 128 154 197 q 161 24 161 58 q 114 7 161 7 q 64 28 64 7 q 72 130 64 61 q 79 233 79 199 l 79 261 q 39 449 79 401 q 36 454 36 451 q 82 469 36 469 q 153 411 153 469 q 156 407 153 407 q 157 408 156 407 q 182 435 165 417 q 313 483 235 483 q 405 446 372 483 q 438 349 438 408 q 441 193 438 296 q 444 38 444 90 m 288 418 q 265 435 288 435 q 199 408 239 435 q 158 357 158 381 q 172 340 158 340 q 206 361 185 340 q 236 392 221 376 q 269 404 244 400 q 288 418 288 406 z "},"o":{"ha":489,"x_min":24,"x_max":446,"o":"m 443 244 q 365 92 443 174 q 208 10 286 10 q 76 55 129 10 q 24 158 24 100 q 124 403 24 304 q 233 467 172 453 q 325 475 265 475 q 446 300 446 475 q 444 263 446 282 q 443 244 443 244 m 329 186 q 313 265 329 232 q 250 308 292 308 q 187 288 226 308 q 138 246 147 267 q 118 156 118 208 q 197 67 118 67 q 288 102 246 67 q 329 186 329 138 z "},"p":{"ha":515,"x_min":19,"x_max":499,"o":"m 499 342 q 485 256 499 304 q 444 178 468 201 q 335 67 407 136 q 247 31 321 56 q 182 0 182 8 q 151 -124 182 -29 q 106 -246 124 -208 q 96 -261 99 -261 q 46 -251 46 -261 q 49 -246 46 -249 q 93 -122 64 -228 q 121 10 121 -21 q 111 26 121 26 q 46 55 72 26 q 19 124 19 83 q 49 197 19 158 q 113 240 79 235 q 121 254 121 242 q 108 318 121 272 q 89 385 89 383 q 75 438 78 431 q 42 481 69 450 q 35 494 35 488 q 63 519 35 519 q 75 506 75 519 q 106 474 75 493 q 151 454 138 454 q 221 482 161 454 q 325 510 281 510 q 447 460 394 510 q 499 342 499 411 m 379 286 q 358 331 379 311 q 313 350 336 350 q 234 317 269 350 q 199 240 199 283 q 224 208 199 232 q 250 167 250 183 q 222 133 250 133 q 186 153 206 133 q 183 65 183 101 q 192 60 183 60 q 251 83 211 60 q 310 125 292 107 q 358 201 336 151 q 379 286 379 250 m 124 140 q 115 182 124 182 q 94 135 94 182 q 117 82 94 81 q 124 140 124 113 z "},"q":{"ha":492,"x_min":24,"x_max":482,"o":"m 482 -278 l 356 -278 q 335 -199 346 -278 q 325 -57 325 -121 q 328 44 325 -15 q 332 131 331 104 q 336 119 336 160 q 278 54 336 90 q 154 14 217 14 q 65 54 100 14 q 24 200 24 103 q 156 460 24 371 q 308 518 242 518 q 358 479 336 518 q 379 446 376 444 q 399 471 388 456 q 424 499 411 486 q 450 513 436 513 q 469 479 469 513 q 453 406 469 446 q 431 364 439 372 q 390 106 390 324 q 399 13 390 81 q 408 -62 408 -54 q 482 -278 408 -71 m 319 253 q 246 349 319 349 q 142 301 190 349 q 93 200 93 254 q 104 114 93 139 q 172 72 121 72 q 258 124 213 72 q 314 211 297 165 q 319 253 319 224 z "},"r":{"ha":460,"x_min":25,"x_max":440,"o":"m 428 351 q 349 360 415 351 q 258 368 283 368 q 235 361 235 368 q 238 356 235 358 q 267 226 267 326 q 260 115 267 181 q 254 44 254 49 q 244 28 254 36 q 222 21 233 21 q 208 36 208 21 q 176 196 208 194 q 124 244 143 197 q 106 333 106 285 q 118 385 106 372 q 124 393 124 390 q 119 394 122 394 q 38 363 106 394 q 31 442 38 389 q 25 507 25 494 q 29 522 25 522 q 161 499 110 522 q 197 481 199 482 q 400 515 232 515 q 429 477 418 515 q 440 397 440 439 q 428 351 440 351 m 183 251 q 176 294 183 263 q 164 325 168 325 q 153 289 153 325 q 183 249 153 249 q 183 251 183 249 z "},"s":{"ha":504,"x_min":29,"x_max":468,"o":"m 468 183 q 383 64 468 118 q 239 15 307 15 q 75 81 132 15 q 39 131 64 99 q 29 149 29 142 q 51 167 29 167 q 117 117 57 167 q 233 67 176 67 q 343 178 343 67 q 300 232 343 232 q 231 186 286 232 q 132 140 175 140 q 61 185 88 140 q 38 269 38 224 q 90 404 38 351 q 174 467 135 450 q 276 485 213 485 q 348 471 301 485 q 418 457 394 457 q 438 411 438 457 q 408 361 438 361 q 336 376 392 361 q 247 392 281 392 q 148 356 188 392 q 108 263 108 321 q 138 207 108 207 q 161 221 150 207 q 172 247 172 235 q 158 273 172 257 q 144 324 144 289 q 240 375 144 375 q 468 183 468 375 z "},"t":{"ha":433,"x_min":18,"x_max":464,"o":"m 464 685 q 417 621 464 621 q 322 602 346 621 q 278 518 299 583 q 256 351 256 444 q 263 199 256 301 q 269 47 269 97 q 263 18 269 18 q 254 24 258 18 q 169 313 168 108 l 169 371 q 165 477 171 407 q 160 582 160 547 q 93 644 160 644 q 74 643 86 644 q 56 642 61 642 q 18 722 18 642 q 39 804 18 790 q 125 811 51 811 q 224 803 203 811 q 265 721 265 786 q 264 714 265 717 q 336 746 275 732 q 414 756 385 756 q 453 731 439 756 q 464 685 464 711 z "},"u":{"ha":488,"x_min":15,"x_max":449,"o":"m 449 38 q 419 19 449 19 q 356 58 396 19 q 314 97 317 97 l 313 94 q 244 38 313 65 q 150 13 185 13 q 47 71 83 13 q 15 190 15 119 q 30 262 15 215 q 44 333 44 308 q 35 401 44 356 q 26 468 26 446 q 117 492 26 492 q 240 456 240 492 q 169 308 240 400 q 99 161 99 215 q 163 83 99 83 q 253 124 213 83 q 294 214 294 164 q 294 272 294 233 q 293 331 293 311 q 283 403 293 356 q 272 476 272 451 q 356 490 272 490 q 444 476 444 490 q 432 421 444 457 q 419 365 419 385 q 407 276 419 335 q 394 188 394 218 q 422 87 394 132 q 449 38 449 42 z "},"v":{"ha":485,"x_min":25,"x_max":443,"o":"m 443 317 q 415 221 443 293 q 371 131 388 149 q 311 61 340 96 q 236 18 269 18 q 161 43 197 18 q 103 97 143 57 q 25 311 25 176 q 68 453 25 388 q 189 526 118 526 q 299 494 253 526 q 350 396 350 458 q 333 314 350 357 q 279 261 313 261 q 193 335 193 261 q 213 367 193 367 q 228 354 225 367 q 235 339 231 342 q 246 368 246 340 q 215 389 246 389 q 178 375 199 389 q 140 334 149 356 q 132 271 132 313 q 153 188 132 232 q 211 132 178 132 q 329 224 286 132 q 364 381 364 296 q 342 458 364 419 q 319 511 319 496 q 371 521 319 521 q 442 504 442 521 q 442 411 442 472 q 443 317 443 349 z "},"w":{"ha":507,"x_min":18,"x_max":460,"o":"m 460 292 q 424 104 460 185 q 325 14 385 14 q 279 25 293 14 q 270 44 271 32 q 267 57 269 57 q 239 37 256 57 q 200 17 222 17 q 67 133 125 17 q 18 293 18 228 q 67 457 18 399 q 172 508 110 508 q 310 389 310 508 q 278 304 310 338 q 224 279 251 279 q 156 301 178 279 q 149 318 149 308 q 158 341 149 331 q 178 351 168 351 q 190 347 185 351 q 196 343 196 343 q 199 349 199 343 q 171 376 199 376 q 100 268 100 376 q 135 174 100 214 q 204 135 169 135 q 318 406 318 135 q 309 444 318 418 q 300 479 300 469 q 346 503 300 503 q 426 441 392 503 q 460 292 460 379 m 397 278 q 392 372 397 354 q 389 376 390 376 q 381 349 383 376 q 376 251 376 313 q 358 199 376 247 q 339 132 339 150 q 343 124 339 124 q 388 190 372 124 q 397 278 397 236 z "},"x":{"ha":483,"x_min":11,"x_max":440,"o":"m 440 165 q 406 61 440 100 q 306 18 368 18 q 223 46 257 18 q 189 121 189 74 q 206 178 189 144 q 244 213 222 213 q 279 195 269 213 q 304 178 289 178 q 358 249 358 178 q 321 307 358 275 q 257 339 283 339 l 256 339 q 204 246 233 321 q 175 139 175 171 q 142 56 175 96 q 63 13 104 13 q 24 58 40 13 q 11 122 11 94 q 38 190 11 190 q 110 197 108 190 q 203 346 203 331 q 161 356 203 349 q 95 364 119 364 q 57 399 71 364 q 49 453 49 424 q 58 506 49 478 q 90 543 71 543 q 188 486 121 543 q 260 429 254 429 q 315 481 261 429 q 394 533 369 533 q 420 526 406 533 q 435 507 435 518 q 397 432 435 432 q 382 434 392 432 q 368 436 372 436 q 340 418 364 436 q 317 396 317 400 q 321 394 317 394 q 410 301 374 394 q 440 165 440 226 z "},"y":{"ha":497,"x_min":7,"x_max":450,"o":"m 450 383 q 425 210 450 315 q 406 128 406 125 q 341 -5 406 114 q 261 -139 276 -124 q 147 -222 232 -169 q 25 -281 56 -281 q 10 -267 10 -281 q 8 -227 10 -254 q 7 -186 7 -200 q 13 -151 7 -151 q 256 -33 169 -151 q 279 14 279 0 q 279 15 279 15 q 96 83 169 15 q 18 261 18 154 q 190 522 18 522 q 306 439 306 522 q 281 358 306 410 q 229 301 253 301 q 224 307 224 301 q 172 371 224 371 q 97 267 97 371 q 170 144 97 213 q 296 75 243 75 q 350 178 325 75 q 372 308 372 264 q 360 340 372 332 q 332 357 347 349 l 332 350 q 318 407 325 354 q 311 472 311 456 q 364 511 311 511 q 450 383 450 511 z "},"z":{"ha":493,"x_min":10,"x_max":444,"o":"m 444 93 q 225 17 444 17 q 18 78 18 17 q 42 96 18 96 q 226 207 104 96 q 349 381 349 318 q 274 411 349 411 q 201 390 219 411 q 182 317 182 369 q 206 310 182 311 q 229 303 229 308 q 206 281 229 290 q 168 271 183 271 q 64 315 118 271 q 10 407 10 358 q 75 479 10 453 q 179 499 124 499 q 246 495 201 499 q 314 492 290 492 q 392 471 357 492 q 433 406 433 446 q 381 278 433 344 q 283 179 349 235 q 222 122 225 131 q 231 118 222 118 q 315 143 267 118 q 372 203 372 171 q 386 213 372 213 q 444 93 444 213 z "},"":{"ha":501,"x_min":32,"x_max":453,"o":"m 440 410 q 424 401 440 401 q 378 410 407 401 q 344 422 349 419 q 340 461 338 431 q 346 515 346 511 q 360 519 346 519 q 426 503 410 519 q 442 469 439 490 q 443 435 444 456 q 440 410 440 408 m 326 461 q 282 408 326 408 q 242 424 258 408 q 225 464 225 440 q 244 506 225 489 q 288 524 263 524 q 326 461 326 524 m 421 239 q 409 218 421 228 q 389 208 397 208 q 386 211 386 208 q 378 240 386 225 q 364 251 375 244 q 353 265 353 257 q 361 276 353 274 q 383 278 369 278 q 403 276 403 276 q 421 239 421 276 m 226 419 q 207 367 226 394 q 144 331 182 331 q 81 364 119 331 q 38 440 38 401 q 64 506 38 490 q 124 514 79 514 q 204 474 175 514 q 226 419 226 443 m 343 235 q 331 214 343 224 q 311 204 319 204 q 308 207 308 204 q 300 235 308 221 q 286 247 297 240 q 275 260 275 253 q 285 272 275 269 q 306 272 292 274 q 325 271 325 271 q 343 235 343 271 m 453 332 q 429 285 453 308 q 413 279 425 279 q 376 285 404 279 q 332 292 347 292 q 258 261 296 292 q 215 186 215 229 q 229 92 215 113 q 314 67 247 67 q 328 51 328 67 q 320 28 328 40 q 306 15 313 15 q 283 17 296 15 q 261 18 269 18 q 188 74 215 18 q 160 236 160 129 q 215 357 160 306 q 336 408 271 408 q 432 374 394 408 q 453 332 453 353 m 451 129 q 423 50 451 86 q 353 14 394 14 q 333 46 335 14 q 319 78 332 78 q 286 129 286 78 q 354 207 286 207 q 418 186 390 207 q 451 129 451 164 m 303 204 q 291 183 303 193 q 271 174 279 174 q 268 176 268 174 q 260 204 268 190 q 246 216 257 210 q 235 229 235 222 q 244 242 235 239 q 265 242 251 243 q 285 240 285 240 q 303 204 303 240 m 154 317 q 158 303 158 313 q 131 242 158 269 q 90 238 124 236 q 50 247 58 239 q 40 304 42 256 q 47 361 38 351 q 97 347 53 367 q 154 317 142 328 m 289 111 q 276 90 289 100 q 257 81 264 81 q 254 83 254 81 q 244 111 254 97 q 231 123 242 117 q 221 136 221 129 q 229 149 221 146 q 250 149 236 150 q 271 147 269 147 q 289 111 289 147 m 181 28 q 115 30 158 28 q 65 32 72 32 q 43 90 54 32 q 32 192 32 149 q 38 224 32 218 q 68 231 44 231 q 117 224 92 231 q 143 214 143 218 q 163 125 143 200 q 183 35 183 50 q 181 28 183 28 z "}}}
